<?xml version="1.0" encoding="utf-8"?>
<svg xmlns="http://www.w3.org/2000/svg" xmlns:xlink="http://www.w3.org/1999/xlink" style="margin: auto; background: none; display: block; shape-rendering: auto;" width="200px" height="200px" viewBox="0 0 100 100" preserveAspectRatio="xMidYMid">
<circle cx="50" cy="50" r="25" fill="#ffcd00"></circle>
<g>
  <path d="M43 23L57 23L50 10Z" transform="rotate(30 50 50)" fill="#e2330a"></path><path d="M43 23L57 23L50 10Z" transform="rotate(60 50 50)" fill="#e2330a"></path><path d="M43 23L57 23L50 10Z" transform="rotate(90 50 50)" fill="#e2330a"></path><path d="M43 23L57 23L50 10Z" transform="rotate(120 50 50)" fill="#e2330a"></path><path d="M43 23L57 23L50 10Z" transform="rotate(150 50 50)" fill="#e2330a"></path><path d="M43 23L57 23L50 10Z" transform="rotate(180 50 50)" fill="#e2330a"></path><path d="M43 23L57 23L50 10Z" transform="rotate(210 50 50)" fill="#e2330a"></path><path d="M43 23L57 23L50 10Z" transform="rotate(240 50 50)" fill="#e2330a"></path><path d="M43 23L57 23L50 10Z" transform="rotate(270 50 50)" fill="#e2330a"></path><path d="M43 23L57 23L50 10Z" transform="rotate(300 50 50)" fill="#e2330a"></path><path d="M43 23L57 23L50 10Z" transform="rotate(330 50 50)" fill="#e2330a"></path><path d="M43 23L57 23L50 10Z" transform="rotate(360 50 50)" fill="#e2330a"></path>
  <animateTransform attributeName="transform" type="rotate" repeatCount="indefinite" dur="1s" values="0 50 50;180 50 50" keyTimes="0;1"></animateTransform>
</g>
<!-- [ldio] generated by https://loading.io/ --></svg>