<?xml version="1.0" encoding="utf-8"?>
<svg xmlns="http://www.w3.org/2000/svg" xmlns:xlink="http://www.w3.org/1999/xlink" style="margin: auto; background: none; display: block; shape-rendering: auto;" width="227px" height="227px" viewBox="0 0 100 100" preserveAspectRatio="xMidYMid">
<defs>
  <mask id="ldio-7lonuw46ich-mask">
    <path d="M50 13L75 30L75 70L50 87L25 70L25 30L50 13Z" fill="#fff" stroke="#000" stroke-width="1"></path>
  </mask>
</defs>
<path d="M50 13L75 30L75 70L50 87L25 70L25 30L50 13Z" fill="#e2330a" stroke="#feffdb" stroke-width="1"></path><path d="M50 13L75 30L75 70L50 87L58.3 70L58.3 30Z" mask="url(#ldio-7lonuw46ich-mask)" fill="#e2330a" stroke="#feffdb" stroke-width="1">
  <animate attributeName="d" dur="1s" repeatCount="indefinite" keyTimes="0;1" values="M50 13L90 30L90 70L50 87L75 70L75 30Z;M50 13L25 30L25 70L50 87L10 70L10 30Z" begin="-0.2s"></animate>
  <animate attributeName="fill" dur="1s" repeatCount="indefinite" keyTimes="0;0.5;1" values="#e2330a;#ffcd00;#6c2eff" begin="-0.2s"></animate>
</path><path d="M50 13L75 30L75 70L50 87L58.3 70L58.3 30Z" mask="url(#ldio-7lonuw46ich-mask)" fill="#e2330a" stroke="#feffdb" stroke-width="1">
  <animate attributeName="d" dur="1s" repeatCount="indefinite" keyTimes="0;1" values="M50 13L90 30L90 70L50 87L75 70L75 30Z;M50 13L25 30L25 70L50 87L10 70L10 30Z" begin="-0.4s"></animate>
  <animate attributeName="fill" dur="1s" repeatCount="indefinite" keyTimes="0;0.5;1" values="#e2330a;#ffcd00;#6c2eff" begin="-0.4s"></animate>
</path><path d="M50 13L75 30L75 70L50 87L58.3 70L58.3 30Z" mask="url(#ldio-7lonuw46ich-mask)" fill="#e2330a" stroke="#feffdb" stroke-width="1">
  <animate attributeName="d" dur="1s" repeatCount="indefinite" keyTimes="0;1" values="M50 13L90 30L90 70L50 87L75 70L75 30Z;M50 13L25 30L25 70L50 87L10 70L10 30Z" begin="-0.6s"></animate>
  <animate attributeName="fill" dur="1s" repeatCount="indefinite" keyTimes="0;0.5;1" values="#e2330a;#ffcd00;#6c2eff" begin="-0.6s"></animate>
</path><path d="M50 13L75 30L75 70L50 87L58.3 70L58.3 30Z" mask="url(#ldio-7lonuw46ich-mask)" fill="#e2330a" stroke="#feffdb" stroke-width="1">
  <animate attributeName="d" dur="1s" repeatCount="indefinite" keyTimes="0;1" values="M50 13L90 30L90 70L50 87L75 70L75 30Z;M50 13L25 30L25 70L50 87L10 70L10 30Z" begin="-0.8s"></animate>
  <animate attributeName="fill" dur="1s" repeatCount="indefinite" keyTimes="0;0.5;1" values="#e2330a;#ffcd00;#6c2eff" begin="-0.8s"></animate>
</path><path d="M50 13L75 30L75 70L50 87L58.3 70L58.3 30Z" mask="url(#ldio-7lonuw46ich-mask)" fill="#e2330a" stroke="#feffdb" stroke-width="1">
  <animate attributeName="d" dur="1s" repeatCount="indefinite" keyTimes="0;1" values="M50 13L90 30L90 70L50 87L75 70L75 30Z;M50 13L25 30L25 70L50 87L10 70L10 30Z" begin="-1s"></animate>
  <animate attributeName="fill" dur="1s" repeatCount="indefinite" keyTimes="0;0.5;1" values="#e2330a;#ffcd00;#6c2eff" begin="-1s"></animate>
</path><path d="M25 30L75 30" fill="#e2330a" stroke="#feffdb" stroke-width="1"></path>
<path d="M25 70L75 70" fill="#e2330a" stroke="#feffdb" stroke-width="1"></path>
<!-- [ldio] generated by https://loading.io/ --></svg>